<?xml version="1.0" encoding="UTF-8" standalone="no"?>
<svg
   xmlns:dc="http://purl.org/dc/elements/1.1/"
   xmlns:cc="http://creativecommons.org/ns#"
   xmlns:rdf="http://www.w3.org/1999/02/22-rdf-syntax-ns#"
   xmlns:svg="http://www.w3.org/2000/svg"
   xmlns="http://www.w3.org/2000/svg"
   xml:space="preserve"
   style="enable-background:new 0 0 100 100;"
   viewBox="0 0 100 100"
   y="0px"
   x="0px"
   id="Ebene_1"
   version="1.1"><metadata
     id="metadata28"><rdf:RDF><cc:Work
         rdf:about=""><dc:format>image/svg+xml</dc:format><dc:type
           rdf:resource="http://purl.org/dc/dcmitype/StillImage" /><dc:title></dc:title></cc:Work></rdf:RDF></metadata><defs
     id="defs26" /><g
     id="Reseplanererare"
     style="fill:none;fill-rule:evenodd;stroke:none;stroke-width:1"
     transform="matrix(4.9528873,0,0,4.9528873,12.564868,9.3173914)"><g
       transform="translate(-77,-370)"
       id="-Rp-widget-detaljerad"><g
         transform="translate(77,370)"
         id="Page-1"><g
           id="Group-3"><g
             id="Clip-2" /><path
             id="Fill-1"
             d="M 2.0732853,7.0607026 C 1.8109922,7.0572833 1.5605432,7.1688249 1.3886991,7.3656144 1.1012631,7.6856184 0.85137811,8.0396097 0.64563414,8.4212505 0.2341462,9.1845616 -5.9369204e-6,10.059562 -5.9369204e-6,10.982079 c 0,2.991401 2.4625157369204,5.436708 5.4749684369204,5.436708 1.5062264,0 2.8812468,-0.609794 3.8710501,-1.592709 0.4949017,-0.491444 0.8951094,-1.077066 1.1725414,-1.728099 0.132364,-0.292443 0.09496,-0.63314 -0.09775,-0.890387 -0.192712,-0.257277 -0.5105752,-0.390808 -0.8307236,-0.34901 -0.3201187,0.0418 -0.5924156,0.252384 -0.7115992,0.550368 -0.1867162,0.438149 -0.4573507,0.833673 -0.7922227,1.166205 -0.6697143,0.665064 -1.5869091,1.075003 -2.611295,1.075003 -2.0487718,0 -3.6938924,-1.633624 -3.6938924,-3.668079 0,-0.627245 0.1567347,-1.2116589 0.4341373,-1.7262417 C 2.3539236,8.9985312 2.5235117,8.759383 2.7180052,8.5428438 2.9553633,8.2858914 3.0185024,7.9144202 2.8792816,7.5943277 2.7400312,7.2742352 2.4243948,7.0652421 2.0732853,7.0607026"
             style="fill:#3c4550" /></g><g
           transform="translate(1.6)"
           id="Group-6"
           style="fill:#3c4550"><path
             id="Fill-4"
             d="m 0.51134397,1.8413498 c -4.1558e-4,0.092882 0.007985,0.1854408 0.0213135,0.2772622 1.1874e-4,6.19e-4 1.10578113,6.7714639 1.10578113,6.7714639 0.069759,0.4260923 0.4390946,0.7399357 0.8738256,0.7424707 l 5.7959184,0.035903 2.0027904,4.6159464 c 0.185944,0.427596 0.673989,0.638711 1.115933,0.482689 l 2.352505,-0.830873 c 0.463406,-0.163834 0.705811,-0.670104 0.540824,-1.130272 -0.164958,-0.460168 -0.674821,-0.699935 -1.138227,-0.536131 L 11.616146,12.823449 9.7144905,8.4377783 C 9.5744683,8.1152687 9.2555369,7.9055977 8.9018746,7.9035048 L 3.2766427,7.8685154 3.1894293,7.3370127 h 3.9786865 c 0.3211577,0.00451 0.6200816,-0.1630087 0.7819814,-0.4384728 0.1619295,-0.275464 0.1619295,-0.61622 0,-0.8916841 C 7.7881974,5.7313918 7.4892735,5.563873 7.1681158,5.5683831 H 2.9009544 L 2.5864757,3.6459121 c 0.8983154,-0.117437 1.5918367,-0.8806007 1.5918367,-1.8045623 0,-1.00517118 -0.8207792,-1.82112847 -1.8330241,-1.82112847 -1.0122449,0 -1.83394433,0.81595729 -1.83394433,1.82112847 z" /></g></g></g></g></svg>