<?xml version="1.0" encoding="UTF-8" standalone="no"?>
<svg
   xmlns:dc="http://purl.org/dc/elements/1.1/"
   xmlns:cc="http://creativecommons.org/ns#"
   xmlns:rdf="http://www.w3.org/1999/02/22-rdf-syntax-ns#"
   xmlns:svg="http://www.w3.org/2000/svg"
   xmlns="http://www.w3.org/2000/svg"
   version="1.1"
   id="Ebene_1"
   x="0px"
   y="0px"
   viewBox="0 0 100 100"
   style="enable-background:new 0 0 100 100;"
   xml:space="preserve"><metadata
     id="metadata19"><rdf:RDF><cc:Work
         rdf:about=""><dc:format>image/svg+xml</dc:format><dc:type
           rdf:resource="http://purl.org/dc/dcmitype/StillImage" /><dc:title></dc:title></cc:Work></rdf:RDF></metadata><defs
     id="defs17" /><g
     transform="matrix(2.6515151,0,0,2.6515149,0,-1.1363597)"
     style="fill:none;fill-rule:evenodd;stroke:none;stroke-width:1"
     id="Template:-Start---Traffic-status"><g
       style="fill:#0096ed"
       id="iPad-Portrait"
       transform="translate(-66,-1545)"><g
         id="Group-+-Molecule:-Traffic-status-menu---m-+-Rectangle-23"
         transform="translate(0,624)"><g
           id="Group"
           transform="translate(39,111)"><path
             d="m 52.142857,841.07143 0,-3.92857 c 0,-0.22917 -0.07366,-0.41741 -0.220982,-0.56474 -0.147322,-0.14732 -0.335564,-0.22098 -0.564732,-0.22098 l -2.357143,0 0,-12.57143 c 0,-0.22916 -0.07366,-0.41741 -0.220982,-0.56473 C 48.631696,823.07366 48.443453,823 48.214286,823 l -7.857143,0 c -0.229168,0 -0.41741,0.0737 -0.564732,0.22098 -0.147323,0.14732 -0.220982,0.33557 -0.220982,0.56473 l 0,3.92858 c 0,0.22916 0.07366,0.41741 0.220982,0.56473 0.147322,0.14732 0.335564,0.22098 0.564732,0.22098 l 2.357143,0 0,7.85714 -2.357143,0 c -0.229168,0 -0.41741,0.0737 -0.564732,0.22098 -0.147323,0.14733 -0.220982,0.33557 -0.220982,0.56474 l 0,3.92857 c 0,0.22917 0.07366,0.41741 0.220982,0.56473 0.147322,0.14732 0.335564,0.22098 0.564732,0.22098 l 11,0 c 0.229168,0 0.41741,-0.0737 0.564732,-0.22098 0.147322,-0.14732 0.220982,-0.33556 0.220982,-0.56473 z m -3.142857,-22 0,-3.92857 c 0,-0.22917 -0.07366,-0.41741 -0.220982,-0.56474 -0.147322,-0.14732 -0.335565,-0.22098 -0.564732,-0.22098 l -4.714286,0 c -0.229168,0 -0.41741,0.0737 -0.564732,0.22098 -0.147322,0.14733 -0.220982,0.33557 -0.220982,0.56474 l 0,3.92857 c 0,0.22917 0.07366,0.41741 0.220982,0.56473 0.147322,0.14732 0.335564,0.22098 0.564732,0.22098 l 4.714286,0 c 0.229167,0 0.41741,-0.0737 0.564732,-0.22098 C 48.92634,819.48884 49,819.3006 49,819.07143 Z m 15.714286,10.21428 c 0,3.42115 -0.842998,6.57626 -2.529018,9.46541 -1.68602,2.88915 -3.973572,5.1767 -6.862723,6.86272 -2.889152,1.68602 -6.044254,2.52902 -9.465402,2.52902 -3.421148,0 -6.576251,-0.843 -9.465402,-2.52902 -2.889151,-1.68602 -5.176703,-3.97357 -6.862723,-6.86272 C 27.842997,835.86197 27,832.70686 27,829.28571 c 0,-3.42114 0.842997,-6.57625 2.529018,-9.4654 1.68602,-2.88915 3.973572,-5.1767 6.862723,-6.86272 2.889151,-1.68602 6.044254,-2.52902 9.465402,-2.52902 3.421148,0 6.57625,0.843 9.465402,2.52902 2.889151,1.68602 5.176703,3.97357 6.862723,6.86272 1.68602,2.88915 2.529018,6.04426 2.529018,9.4654 z"
             id="ïš" /></g></g></g></g></svg>